<svg id="Layer_1" data-name="Layer 1" xmlns="http://www.w3.org/2000/svg" viewBox="0 0 396.85 456.1"><path d="M556.19,1053.86c18.15-.61,35.28,1.64,50,10.83,46.29,28.87,87.93,64,127.46,101.23,17.13,16.14,21.87,39.48,17.08,63.2-2.13,10.53-7.84,20.09-20.19,19.28-12.57-.82-17.66-11-16.11-21.87,3.83-26.77-11.26-41.87-30.19-56.33C659,1150.94,635.13,1130,610,1110.56c-36.7-28.34-72.57-28.6-109-.47q-43.07,33.24-84.59,68.48c-28.36,24-27.95,50,.74,73.61,27.11,22.36,54.48,44.44,82.31,65.9,37.39,28.84,71.69,29.26,109,2,11.75-8.61,24.82-23.51,37.71-7.69,14.84,18.21-5.31,28-16.64,37.53a115,115,0,0,1-141.95,5c-35.74-26-70.23-53.83-103.52-82.87s-36.65-79.87-5.06-108.93c36.6-33.69,76.66-63.77,116.46-93.77C512.91,1056.14,534.75,1052.17,556.19,1053.86Z" transform="translate(-357.07 -1053.49)" style="fill:#f6805b"/><path d="M556.59,1184.12a77,77,0,0,1,41.1,8.4c52.79,27.45,97.52,66.34,138.81,108,26.38,26.63,21.76,73-6.79,98.63-36.2,32.46-73.53,64.44-114,91.16-41.22,27.23-87,25.31-127.66-4-35.81-25.79-69.46-54.64-103.54-82.77-19.66-16.23-28.06-37.94-26.17-63.43.83-11.16,5.19-20.41,17.5-21.56,12.62-1.18,20.13,7,19.23,18.48-2.22,28.5,16.62,42.85,35.52,57.71,24.94,19.62,49.46,39.8,74.89,58.76,30.84,23,67.87,24,97.75,1.49,31.68-23.81,62.6-48.74,92.8-74.41,25.87-22,25.92-46.33,0-68.79-29.12-25.2-59.09-49.54-89.83-72.74-32-24.15-68.21-23.11-104.11,1.42-12.38,8.45-25,21-37.42,3.37-11.41-16.16,5.15-24.32,14.85-32.55C500.67,1193.31,527.47,1184.24,556.59,1184.12Z" transform="translate(-357.07 -1053.49)" style="fill:#f6815c"/></svg>