<svg id="Layer_1" data-name="Layer 1" xmlns="http://www.w3.org/2000/svg" viewBox="0 0 395.83 325.71"><path d="M556.59,1055.12a77,77,0,0,1,41.1,8.4c52.79,27.45,97.52,66.34,138.81,108,26.38,26.63,21.76,73-6.79,98.63-36.2,32.46-73.53,64.44-114,91.16-41.22,27.23-87,25.31-127.66-4-35.81-25.79-69.46-54.64-103.54-82.77-19.66-16.23-28.06-37.94-26.17-63.43.83-11.16,5.19-20.41,17.5-21.56,12.62-1.18,20.13,7,19.23,18.48-2.22,28.5,16.62,42.85,35.52,57.71,24.94,19.62,49.46,39.8,74.89,58.76,30.84,23,67.87,24,97.75,1.49,31.68-23.81,62.6-48.74,92.8-74.41,25.87-22,25.92-46.33,0-68.79-29.12-25.2-59.09-49.54-89.83-72.74-32-24.15-68.21-23.11-104.11,1.42-12.38,8.45-25,21-37.42,3.37-11.41-16.16,5.15-24.32,14.85-32.55C500.67,1064.31,527.47,1055.24,556.59,1055.12Z" transform="translate(-358.09 -1054.88)" style="fill:#f6815c"/></svg>