<svg id="Layer_1" data-name="Layer 1" xmlns="http://www.w3.org/2000/svg" viewBox="0 0 395.44 323.51"><path d="M556.19,1053.86c18.15-.61,35.28,1.64,50,10.83,46.29,28.87,87.93,64,127.46,101.23,17.13,16.14,21.87,39.48,17.08,63.2-2.13,10.53-7.84,20.09-20.19,19.28-12.57-.82-17.66-11-16.11-21.87,3.83-26.77-11.26-41.87-30.19-56.33C659,1150.94,635.13,1130,610,1110.56c-36.7-28.34-72.57-28.6-109-.47q-43.07,33.24-84.59,68.48c-28.36,24-27.95,50,.74,73.61,27.11,22.36,54.48,44.44,82.31,65.9,37.39,28.84,71.69,29.26,109,2,11.75-8.61,24.82-23.51,37.71-7.69,14.84,18.21-5.31,28-16.64,37.53a115,115,0,0,1-141.95,5c-35.74-26-70.23-53.83-103.52-82.87s-36.65-79.87-5.06-108.93c36.6-33.69,76.66-63.77,116.46-93.77C512.91,1056.14,534.75,1052.17,556.19,1053.86Z" transform="translate(-357.07 -1053.49)" style="fill:#f6805b"/></svg>