<?xml version="1.0" encoding="UTF-8"?>
<svg xmlns="http://www.w3.org/2000/svg" xmlns:xlink="http://www.w3.org/1999/xlink" viewBox="0 0 100 100" width="100px" height="100px">
<g id="surface196706465">
<path style=" stroke:none;fill-rule:nonzero;fill:rgb(93.333334%,24.313726%,32.941177%);fill-opacity:1;" d="M 13 27 C 11.894531 27 11 27.894531 11 29 C 11 30.105469 11.894531 31 13 31 C 14.105469 31 15 30.105469 15 29 C 15 27.894531 14.105469 27 13 27 Z M 13 27 "/>
<path style=" stroke:none;fill-rule:nonzero;fill:rgb(100%,46.27451%,26.274511%);fill-opacity:0.70196;" d="M 77 12 C 76.449219 12 76 12.449219 76 13 C 76 13.550781 76.449219 14 77 14 C 77.550781 14 78 13.550781 78 13 C 78 12.449219 77.550781 12 77 12 Z M 77 12 "/>
<path style=" stroke:none;fill-rule:nonzero;fill:rgb(100%,46.27451%,26.274511%);fill-opacity:0.70196;" d="M 50 13 C 29.566406 13 13 29.566406 13 50 C 13 70.433594 29.566406 87 50 87 C 70.433594 87 87 70.433594 87 50 C 87 29.566406 70.433594 13 50 13 Z M 50 13 "/>
<path style=" stroke:none;fill-rule:nonzero;fill:rgb(100%,46.27451%,26.274511%);fill-opacity:0.70196;" d="M 83 11 C 80.789062 11 79 12.789062 79 15 C 79 17.210938 80.789062 19 83 19 C 85.210938 19 87 17.210938 87 15 C 87 12.789062 85.210938 11 83 11 Z M 83 11 "/>
<path style=" stroke:none;fill-rule:nonzero;fill:rgb(93.333334%,24.313726%,32.941177%);fill-opacity:1;" d="M 87 22 C 85.894531 22 85 22.894531 85 24 C 85 25.105469 85.894531 26 87 26 C 88.105469 26 89 25.105469 89 24 C 89 22.894531 88.105469 22 87 22 Z M 87 22 "/>
<path style=" stroke:none;fill-rule:nonzero;fill:rgb(47.058824%,63.529414%,82.352942%);fill-opacity:0.58824;" d="M 81 74 C 79.894531 74 79 74.894531 79 76 C 79 77.105469 79.894531 78 81 78 C 82.105469 78 83 77.105469 83 76 C 83 74.894531 82.105469 74 81 74 Z M 15 59 C 12.789062 59 11 60.789062 11 63 C 11 65.210938 12.789062 67 15 67 C 17.210938 67 19 65.210938 19 63 C 19 60.789062 17.210938 59 15 59 Z M 15 59 "/>
<path style=" stroke:none;fill-rule:nonzero;fill:rgb(93.333334%,24.313726%,32.941177%);fill-opacity:1;" d="M 25 85 C 23.894531 85 23 85.894531 23 87 C 23 88.105469 23.894531 89 25 89 C 26.105469 89 27 88.105469 27 87 C 27 85.894531 26.105469 85 25 85 Z M 25 85 "/>
<path style=" stroke:none;fill-rule:nonzero;fill:rgb(100%,100%,100%);fill-opacity:1;" d="M 18.5 51 C 17.121094 51 16 52.121094 16 53.5 C 16 54.878906 17.121094 56 18.5 56 C 19.878906 56 21 54.878906 21 53.5 C 21 52.121094 19.878906 51 18.5 51 Z M 18.5 51 "/>
<path style=" stroke:none;fill-rule:nonzero;fill:rgb(100%,46.27451%,26.274511%);fill-opacity:0.70196;" d="M 21 66 C 20.449219 66 20 66.449219 20 67 C 20 67.550781 20.449219 68 21 68 C 21.550781 68 22 67.550781 22 67 C 22 66.449219 21.550781 66 21 66 Z M 21 66 "/>
<path style=" stroke:none;fill-rule:nonzero;fill:rgb(100%,100%,100%);fill-opacity:1;" d="M 80 33 C 79.449219 33 79 33.449219 79 34 C 79 34.550781 79.449219 35 80 35 C 80.550781 35 81 34.550781 81 34 C 81 33.449219 80.550781 33 80 33 Z M 80 33 "/>
<path style=" stroke:none;fill-rule:nonzero;fill:rgb(47.058824%,63.529414%,82.352942%);fill-opacity:1;" d="M 50 25.625 C 36.605469 25.625 25.75 36.480469 25.75 49.875 C 25.75 63.269531 36.605469 74.125 50 74.125 C 63.394531 74.125 74.25 63.269531 74.25 49.875 C 74.25 36.480469 63.394531 25.625 50 25.625 Z M 50 25.625 "/>
<path style=" stroke:none;fill-rule:nonzero;fill:rgb(27.843139%,16.862746%,16.078432%);fill-opacity:1;" d="M 68.164062 59.445312 C 68.089844 59.445312 68.015625 59.429688 67.945312 59.394531 C 67.695312 59.273438 67.59375 58.972656 67.714844 58.726562 C 67.847656 58.453125 67.972656 58.183594 68.089844 57.90625 C 68.550781 56.839844 68.914062 55.722656 69.175781 54.589844 C 69.238281 54.320312 69.511719 54.152344 69.777344 54.214844 C 70.046875 54.277344 70.214844 54.546875 70.152344 54.816406 C 69.878906 56.007812 69.492188 57.179688 69.007812 58.304688 C 68.882812 58.59375 68.753906 58.878906 68.613281 59.164062 C 68.527344 59.34375 68.347656 59.445312 68.164062 59.445312 Z M 68.164062 59.445312 "/>
<path style=" stroke:none;fill-rule:nonzero;fill:rgb(27.843139%,16.862746%,16.078432%);fill-opacity:1;" d="M 70.265625 52.335938 C 70.25 52.335938 70.234375 52.335938 70.21875 52.335938 C 69.945312 52.308594 69.742188 52.066406 69.765625 51.789062 C 69.804688 51.363281 69.828125 50.933594 69.839844 50.503906 C 69.90625 47.839844 69.449219 45.230469 68.480469 42.753906 C 68.382812 42.496094 68.507812 42.207031 68.765625 42.105469 C 69.023438 42.003906 69.3125 42.132812 69.414062 42.390625 C 70.429688 44.992188 70.910156 47.730469 70.839844 50.53125 C 70.828125 50.980469 70.804688 51.429688 70.761719 51.882812 C 70.738281 52.140625 70.519531 52.335938 70.265625 52.335938 Z M 70.265625 52.335938 "/>
<path style=" stroke:none;fill-rule:nonzero;fill:rgb(27.843139%,16.862746%,16.078432%);fill-opacity:1;" d="M 35.105469 36.53125 C 34.984375 36.53125 34.863281 36.488281 34.765625 36.398438 C 34.5625 36.210938 34.554688 35.890625 34.742188 35.691406 C 38.140625 32.050781 42.742188 29.75 47.691406 29.214844 C 47.96875 29.191406 48.214844 29.386719 48.242188 29.660156 C 48.273438 29.933594 48.074219 30.179688 47.800781 30.210938 C 43.085938 30.71875 38.710938 32.90625 35.472656 36.371094 C 35.375 36.480469 35.242188 36.53125 35.105469 36.53125 Z M 35.105469 36.53125 "/>
<path style=" stroke:none;fill-rule:nonzero;fill:rgb(27.843139%,16.862746%,16.078432%);fill-opacity:1;" d="M 36.136719 65.285156 C 36.015625 65.285156 35.894531 65.238281 35.796875 65.148438 C 28.691406 58.515625 27.074219 48.011719 31.863281 39.601562 C 32 39.359375 32.304688 39.277344 32.546875 39.414062 C 32.785156 39.550781 32.867188 39.855469 32.730469 40.09375 C 28.175781 48.101562 29.714844 58.101562 36.480469 64.417969 C 36.683594 64.605469 36.691406 64.921875 36.503906 65.125 C 36.40625 65.230469 36.269531 65.285156 36.136719 65.285156 Z M 36.136719 65.285156 "/>
<path style=" stroke:none;fill-rule:nonzero;fill:rgb(27.843139%,16.862746%,16.078432%);fill-opacity:1;" d="M 58.890625 68.769531 C 58.703125 68.769531 58.523438 68.664062 58.4375 68.484375 C 58.316406 68.238281 58.421875 67.9375 58.671875 67.820312 C 60.871094 66.757812 62.84375 65.304688 64.527344 63.503906 C 65.207031 62.773438 65.835938 61.992188 66.394531 61.179688 C 66.550781 60.949219 66.863281 60.894531 67.089844 61.050781 C 67.316406 61.203125 67.375 61.515625 67.21875 61.742188 C 66.628906 62.597656 65.972656 63.421875 65.257812 64.183594 C 63.488281 66.078125 61.421875 67.605469 59.105469 68.71875 C 59.035156 68.753906 58.960938 68.769531 58.890625 68.769531 Z M 58.890625 68.769531 "/>
<path style=" stroke:none;fill-rule:nonzero;fill:rgb(100%,100%,100%);fill-opacity:1;" d="M 46.457031 73.5 L 46.457031 56.5 L 40.4375 56.5 L 40.4375 50.523438 L 46.457031 50.523438 L 46.457031 44.304688 C 46.320312 38.730469 50.617188 33.304688 60.5625 36.3125 L 60.539062 41.582031 L 57.03125 41.5625 C 54.335938 41.5625 53.40625 42.425781 53.40625 44.304688 L 53.40625 50.523438 L 60.5625 50.523438 L 59.304688 56.5 L 53.40625 56.5 L 53.40625 73.5 "/>
<path style=" stroke:none;fill-rule:nonzero;fill:rgb(27.843139%,16.862746%,16.078432%);fill-opacity:1;" d="M 53.90625 73.5 L 52.90625 73.5 L 52.90625 56 L 58.898438 56 L 59.945312 51.023438 L 52.90625 51.023438 L 52.90625 44.304688 C 52.90625 42.0625 54.179688 41.0625 57.03125 41.0625 L 60.042969 41.078125 L 60.0625 36.6875 C 55.785156 35.464844 52.28125 35.773438 49.90625 37.582031 C 47.964844 39.0625 46.890625 41.507812 46.957031 44.292969 L 46.957031 51.023438 L 40.9375 51.023438 L 40.9375 56 L 46.957031 56 L 46.957031 73.5 L 45.957031 73.5 L 45.957031 57 L 39.9375 57 L 39.9375 50.023438 L 45.957031 50.023438 L 45.957031 44.304688 C 45.882812 41.207031 47.101562 38.460938 49.300781 36.785156 C 51.1875 35.347656 54.699219 34.015625 60.707031 35.832031 L 61.0625 35.941406 L 61.039062 42.085938 L 57.03125 42.0625 C 54.417969 42.0625 53.90625 42.882812 53.90625 44.304688 L 53.90625 50.023438 L 61.179688 50.023438 L 59.710938 57 L 53.90625 57 Z M 53.90625 73.5 "/>
<path style=" stroke:none;fill-rule:nonzero;fill:rgb(27.843139%,16.862746%,16.078432%);fill-opacity:1;" d="M 50 74.824219 C 36.242188 74.824219 25.050781 63.632812 25.050781 49.875 C 25.050781 36.117188 36.242188 24.925781 50 24.925781 C 63.757812 24.925781 74.949219 36.117188 74.949219 49.875 C 74.949219 63.632812 63.757812 74.824219 50 74.824219 Z M 50 26.324219 C 37.015625 26.324219 26.449219 36.890625 26.449219 49.875 C 26.449219 62.859375 37.015625 73.425781 50 73.425781 C 62.984375 73.425781 73.550781 62.859375 73.550781 49.875 C 73.550781 36.890625 62.984375 26.324219 50 26.324219 Z M 50 26.324219 "/>
</g>
</svg>
