<?xml version="1.0" encoding="UTF-8"?>
<svg xmlns="http://www.w3.org/2000/svg" xmlns:xlink="http://www.w3.org/1999/xlink" viewBox="0 0 100 100" width="100px" height="100px">
<g id="surface196767722">
<path style=" stroke:none;fill-rule:nonzero;fill:rgb(100%,46.27451%,26.274511%);fill-opacity:1;" d="M 13 27 C 11.894531 27 11 27.894531 11 29 C 11 30.105469 11.894531 31 13 31 C 14.105469 31 15 30.105469 15 29 C 15 27.894531 14.105469 27 13 27 Z M 13 27 "/>
<path style=" stroke:none;fill-rule:nonzero;fill:rgb(94.509804%,73.725492%,9.803922%);fill-opacity:1;" d="M 77 12 C 76.449219 12 76 12.449219 76 13 C 76 13.550781 76.449219 14 77 14 C 77.550781 14 78 13.550781 78 13 C 78 12.449219 77.550781 12 77 12 Z M 77 12 "/>
<path style=" stroke:none;fill-rule:nonzero;fill:rgb(100%,46.27451%,26.274511%);fill-opacity:0.70196;" d="M 50 13 C 29.566406 13 13 29.566406 13 50 C 13 70.433594 29.566406 87 50 87 C 70.433594 87 87 70.433594 87 50 C 87 29.566406 70.433594 13 50 13 Z M 50 13 "/>
<path style=" stroke:none;fill-rule:nonzero;fill:rgb(94.509804%,73.725492%,9.803922%);fill-opacity:1;" d="M 83 11 C 80.789062 11 79 12.789062 79 15 C 79 17.210938 80.789062 19 83 19 C 85.210938 19 87 17.210938 87 15 C 87 12.789062 85.210938 11 83 11 Z M 83 11 "/>
<path style=" stroke:none;fill-rule:nonzero;fill:rgb(100%,46.27451%,26.274511%);fill-opacity:1;" d="M 87 22 C 85.894531 22 85 22.894531 85 24 C 85 25.105469 85.894531 26 87 26 C 88.105469 26 89 25.105469 89 24 C 89 22.894531 88.105469 22 87 22 Z M 87 22 "/>
<path style=" stroke:none;fill-rule:nonzero;fill:rgb(98.431373%,80.392158%,34.901962%);fill-opacity:1;" d="M 81 74 C 79.894531 74 79 74.894531 79 76 C 79 77.105469 79.894531 78 81 78 C 82.105469 78 83 77.105469 83 76 C 83 74.894531 82.105469 74 81 74 Z M 15 59 C 12.789062 59 11 60.789062 11 63 C 11 65.210938 12.789062 67 15 67 C 17.210938 67 19 65.210938 19 63 C 19 60.789062 17.210938 59 15 59 Z M 15 59 "/>
<path style=" stroke:none;fill-rule:nonzero;fill:rgb(100%,46.27451%,26.274511%);fill-opacity:1;" d="M 25 85 C 23.894531 85 23 85.894531 23 87 C 23 88.105469 23.894531 89 25 89 C 26.105469 89 27 88.105469 27 87 C 27 85.894531 26.105469 85 25 85 Z M 25 85 "/>
<path style=" stroke:none;fill-rule:nonzero;fill:rgb(100%,100%,100%);fill-opacity:1;" d="M 18.5 51 C 17.121094 51 16 52.121094 16 53.5 C 16 54.878906 17.121094 56 18.5 56 C 19.878906 56 21 54.878906 21 53.5 C 21 52.121094 19.878906 51 18.5 51 Z M 18.5 51 "/>
<path style=" stroke:none;fill-rule:nonzero;fill:rgb(94.509804%,73.725492%,9.803922%);fill-opacity:1;" d="M 21 66 C 20.449219 66 20 66.449219 20 67 C 20 67.550781 20.449219 68 21 68 C 21.550781 68 22 67.550781 22 67 C 22 66.449219 21.550781 66 21 66 Z M 21 66 "/>
<path style=" stroke:none;fill-rule:nonzero;fill:rgb(100%,100%,100%);fill-opacity:1;" d="M 80 33 C 79.449219 33 79 33.449219 79 34 C 79 34.550781 79.449219 35 80 35 C 80.550781 35 81 34.550781 81 34 C 81 33.449219 80.550781 33 80 33 Z M 80 33 "/>
<path style=" stroke:none;fill-rule:nonzero;fill:rgb(91.764706%,31.764707%,40.392157%);fill-opacity:1;" d="M 35.234375 47.445312 C 36.445312 40.382812 42.589844 35 50 35 C 53.367188 35 56.464844 36.121094 58.96875 37.996094 L 65.359375 31.109375 C 61.179688 27.683594 55.828125 25.625 50 25.625 C 38.058594 25.625 28.140625 34.261719 26.128906 45.625 Z M 35.234375 47.445312 "/>
<path style=" stroke:none;fill-rule:nonzero;fill:rgb(0%,65.098041%,59.607846%);fill-opacity:1;" d="M 58.90625 62.066406 C 56.414062 63.910156 53.335938 65 50 65 C 42.15625 65 35.730469 58.980469 35.066406 51.3125 L 26.15625 54.28125 C 28.230469 65.570312 38.113281 74.125 50 74.125 C 56.261719 74.125 61.96875 71.75 66.269531 67.855469 Z M 58.90625 62.066406 "/>
<path style=" stroke:none;fill-rule:nonzero;fill:rgb(28.235295%,74.509805%,84.705883%);fill-opacity:1;" d="M 68.5 45.5 L 50.5 45.5 L 50.5 54.5 L 64.3125 54.5 C 63.238281 57.914062 60.976562 60.800781 58.015625 62.679688 L 65.261719 68.71875 C 70.742188 64.269531 74.25 57.484375 74.25 49.875 C 74.25 48.378906 74.109375 46.921875 73.847656 45.5 Z M 68.5 45.5 "/>
<path style=" stroke:none;fill-rule:nonzero;fill:rgb(99.215686%,90.588236%,31.764707%);fill-opacity:1;" d="M 35 50 C 35 47.816406 35.476562 45.746094 36.316406 43.878906 L 28.496094 38.664062 C 26.746094 42.019531 25.75 45.828125 25.75 49.875 C 25.75 53.660156 26.617188 57.238281 28.164062 60.429688 L 36 55 C 35.632812 53.703125 35 51.414062 35 50 Z M 35 50 "/>
<path style=" stroke:none;fill-rule:nonzero;fill:rgb(27.843139%,16.862746%,16.078432%);fill-opacity:1;" d="M 50 74.824219 C 36.242188 74.824219 25.050781 63.632812 25.050781 49.875 C 25.050781 36.117188 36.242188 24.925781 50 24.925781 C 55.75 24.925781 61.363281 26.929688 65.804688 30.570312 L 66.378906 31.042969 L 59.054688 38.933594 L 58.550781 38.558594 C 56.050781 36.6875 53.09375 35.699219 50 35.699219 C 42.113281 35.699219 35.699219 42.113281 35.699219 50 C 35.699219 57.886719 42.113281 64.300781 50 64.300781 C 55.957031 64.300781 61.195312 60.683594 63.324219 55.199219 L 50 55.207031 L 49.992188 45.023438 L 74.425781 45.015625 L 74.527344 45.589844 C 74.804688 47.09375 74.949219 48.390625 74.949219 49.875 C 74.949219 63.632812 63.757812 74.824219 50 74.824219 Z M 50 26.324219 C 37.015625 26.324219 26.449219 36.890625 26.449219 49.875 C 26.449219 62.859375 37.015625 73.425781 50 73.425781 C 62.984375 73.425781 73.550781 62.859375 73.550781 49.875 C 73.550781 48.664062 73.445312 47.648438 73.25 46.417969 L 51.191406 46.417969 L 51.199219 53.800781 L 65.265625 53.800781 L 64.980469 54.710938 C 62.914062 61.28125 56.894531 65.699219 50 65.699219 C 41.34375 65.699219 34.300781 58.65625 34.300781 50 C 34.300781 41.34375 41.34375 34.300781 50 34.300781 C 53.191406 34.300781 56.246094 35.253906 58.875 37.066406 L 64.332031 31.191406 C 60.238281 28.046875 55.179688 26.324219 50 26.324219 Z M 50 26.324219 "/>
</g>
</svg>
