<svg xmlns="http://www.w3.org/2000/svg" width="22" height="23" viewBox="0 0 22 23">
  <path id="Log_out" data-name="Log out" d="M8.708,23H1.833A1.829,1.829,0,0,1,0,21.18V1.822A1.83,1.83,0,0,1,1.833,0H8.708a5.26,5.26,0,0,1,5.27,5.238V6.377a.687.687,0,0,1-1.374,0V5.238a3.889,3.889,0,0,0-3.9-3.873H1.833a.464.464,0,0,0-.459.456V21.18a.463.463,0,0,0,.459.455H8.708a3.888,3.888,0,0,0,3.9-3.872V16.625a.687.687,0,0,1,1.374,0v1.139A5.26,5.26,0,0,1,8.708,23Zm8.5-6.758a.684.684,0,0,1-.485-.2.677.677,0,0,1,0-.966l2.911-2.893H7.563a.683.683,0,1,1,0-1.365h12.1L16.748,7.924a.684.684,0,0,1,0-.967.695.695,0,0,1,.973,0l4.071,4.046a.627.627,0,0,1,.126.19A.652.652,0,0,1,22,11.5a.665.665,0,0,1-.26.523l-4.045,4.019A.684.684,0,0,1,17.21,16.242Z" fill="#ff7643"/>
</svg>
