<svg xmlns="http://www.w3.org/2000/svg" width="18" height="13" viewBox="0 0 18 13">
  <defs>
    <style>
      .cls-1 {
        fill: #757575;
      }
    </style>
  </defs>
  <path id="Mail" class="cls-1" d="M15.793,13H2.208A2.218,2.218,0,0,1,0,10.777V2.224A2.218,2.218,0,0,1,2.208,0H15.793A2.218,2.218,0,0,1,18,2.224v8.553A2.217,2.217,0,0,1,15.793,13ZM2.208,1.026a1.2,1.2,0,0,0-1.189,1.2v8.553a1.2,1.2,0,0,0,1.189,1.2H15.793a1.2,1.2,0,0,0,1.189-1.2V2.224a1.2,1.2,0,0,0-1.189-1.2ZM9.016,8.3a1.345,1.345,0,0,1-.788-.254L2.76,4.11a.516.516,0,0,1-.119-.715.51.51,0,0,1,.415-.216.5.5,0,0,1,.3.1l5.467,3.93a.336.336,0,0,0,.4,0l5.432-3.928a.5.5,0,0,1,.3-.1.513.513,0,0,1,.3.93L9.809,8.039A1.341,1.341,0,0,1,9.016,8.3Z"/>
</svg>
