<svg xmlns="http://www.w3.org/2000/svg" width="18" height="23" viewBox="0 0 18 23">
  <g id="Group_4" data-name="Group 4" transform="translate(-50.5 -412.5)">
    <path id="Path" d="M1.493,1.643A1.49,1.49,0,0,1,0,.159C0,.105,0,.053.008,0h2.97c0,.053.008.105.008.159A1.491,1.491,0,0,1,1.493,1.643Z" transform="translate(58.008 432.189)" fill="#ff7643"/>
    <path id="Path-2" data-name="Path" d="M10.342,3.552a2.224,2.224,0,0,0,.42-1.3,2.261,2.261,0,0,0-4.522,0,2.23,2.23,0,0,0,.419,1.3A8.478,8.478,0,0,0,0,11.806V17.48a1.714,1.714,0,0,0,1.717,1.708H5.838c0,.053,0,.105,0,.159a2.667,2.667,0,0,0,5.333,0c0-.054,0-.106,0-.159h4.121A1.715,1.715,0,0,0,17,17.48V11.806a8.477,8.477,0,0,0-6.658-8.254Z" transform="translate(51 413)" fill="none" stroke="#ff7643" stroke-width="1"/>
  </g>
</svg>
