<svg xmlns="http://www.w3.org/2000/svg" width="22" height="22" viewBox="0 0 22 22">
  <path id="Question_mark" data-name="Question mark" d="M11,22A11,11,0,1,1,22,11,11.012,11.012,0,0,1,11,22ZM11,1.246A9.755,9.755,0,1,0,20.756,11,9.766,9.766,0,0,0,11,1.246Zm0,15a.832.832,0,1,1,.83-.832A.832.832,0,0,1,11,16.243Zm0-2.578a.623.623,0,0,1-.622-.622V10.968A.623.623,0,0,1,11,10.346,1.983,1.983,0,1,0,9.028,8.352a.629.629,0,0,1-.623.633.61.61,0,0,1-.622-.611V8.352a3.217,3.217,0,1,1,3.839,3.179v1.513A.623.623,0,0,1,11,13.666Z" fill="#ff7643"/>
</svg>
