<svg xmlns="http://www.w3.org/2000/svg" width="22" height="22" viewBox="0 0 22 22">
  <path id="Settings" d="M12.433,22H9.567a1.4,1.4,0,0,1-1.4-1.4v-.977a.175.175,0,0,0-.13-.15,8.031,8.031,0,0,1-.931-.384.226.226,0,0,0-.1-.025.141.141,0,0,0-.1.038l-.682.687a1.4,1.4,0,0,1-1.984,0l-2.03-2.032a1.4,1.4,0,0,1,0-1.984l.688-.683a.179.179,0,0,0,.013-.2,7.757,7.757,0,0,1-.384-.93.171.171,0,0,0-.15-.13H1.4a1.4,1.4,0,0,1-1.4-1.4V9.567a1.4,1.4,0,0,1,1.4-1.4h.977a.171.171,0,0,0,.15-.129,7.834,7.834,0,0,1,.384-.931.176.176,0,0,0-.015-.2l-.686-.682a1.4,1.4,0,0,1,0-1.984L4.239,2.209a1.4,1.4,0,0,1,1.984,0l.683.687a.135.135,0,0,0,.1.039.253.253,0,0,0,.1-.023,7.828,7.828,0,0,1,.93-.385.173.173,0,0,0,.129-.149V1.4A1.4,1.4,0,0,1,9.567,0h2.866a1.4,1.4,0,0,1,1.4,1.4v.977a.172.172,0,0,0,.13.149,7.961,7.961,0,0,1,.931.385.231.231,0,0,0,.1.025.138.138,0,0,0,.1-.04l.681-.687a1.4,1.4,0,0,1,1.984,0l2.031,2.031a1.4,1.4,0,0,1,0,1.985l-.687.681a.178.178,0,0,0-.013.2,8.379,8.379,0,0,1,.384.93.169.169,0,0,0,.149.13H20.6a1.4,1.4,0,0,1,1.4,1.4v2.866a1.4,1.4,0,0,1-1.4,1.4h-.977a.169.169,0,0,0-.149.13,8.24,8.24,0,0,1-.384.93.176.176,0,0,0,.014.2l.686.683a1.4,1.4,0,0,1,0,1.983l-2.032,2.032a1.4,1.4,0,0,1-1.984,0l-.682-.687a.136.136,0,0,0-.1-.039.225.225,0,0,0-.1.026,7.834,7.834,0,0,1-.931.384.174.174,0,0,0-.129.15V20.6A1.4,1.4,0,0,1,12.433,22ZM7.009,17.819a1.466,1.466,0,0,1,.645.15,6.749,6.749,0,0,0,.785.324,1.416,1.416,0,0,1,.971,1.329V20.6a.156.156,0,0,0,.157.156h2.866a.156.156,0,0,0,.157-.156v-.977a1.416,1.416,0,0,1,.97-1.329,6.552,6.552,0,0,0,.785-.324,1.484,1.484,0,0,1,.647-.15,1.376,1.376,0,0,1,.986.405l.684.687a.151.151,0,0,0,.11.047.154.154,0,0,0,.111-.047l2.031-2.03a.149.149,0,0,0,.045-.111.155.155,0,0,0-.046-.11l-.688-.683a1.418,1.418,0,0,1-.255-1.631,6.891,6.891,0,0,0,.326-.788,1.413,1.413,0,0,1,1.327-.968H20.6a.156.156,0,0,0,.156-.156V9.567a.156.156,0,0,0-.156-.156h-.977a1.413,1.413,0,0,1-1.327-.97,6.781,6.781,0,0,0-.326-.786,1.421,1.421,0,0,1,.254-1.632l.689-.682a.158.158,0,0,0,.046-.111.153.153,0,0,0-.046-.112l-2.03-2.03a.152.152,0,0,0-.111-.046.147.147,0,0,0-.11.047l-.683.686a1.386,1.386,0,0,1-.988.405,1.462,1.462,0,0,1-.644-.151,6.52,6.52,0,0,0-.785-.323,1.417,1.417,0,0,1-.971-1.328V1.4a.156.156,0,0,0-.157-.156H9.567A.156.156,0,0,0,9.41,1.4v.977a1.417,1.417,0,0,1-.97,1.328,6.469,6.469,0,0,0-.785.323,1.489,1.489,0,0,1-.648.151,1.374,1.374,0,0,1-.983-.4L5.341,3.09a.153.153,0,0,0-.112-.046.15.15,0,0,0-.11.046L3.089,5.12a.156.156,0,0,0,0,.22l.687.683a1.418,1.418,0,0,1,.255,1.632,6.657,6.657,0,0,0-.326.787,1.415,1.415,0,0,1-1.327.969H1.4a.156.156,0,0,0-.157.156v2.866a.156.156,0,0,0,.157.156h.977a1.415,1.415,0,0,1,1.327.97,6.915,6.915,0,0,0,.326.787,1.417,1.417,0,0,1-.254,1.631l-.688.683a.146.146,0,0,0-.046.11.15.15,0,0,0,.046.112l2.03,2.03a.152.152,0,0,0,.11.046.155.155,0,0,0,.112-.047l.683-.687A1.377,1.377,0,0,1,7.009,17.819ZM11,15.255A4.255,4.255,0,1,1,15.254,11,4.26,4.26,0,0,1,11,15.255ZM11,7.99A3.01,3.01,0,1,0,14.01,11,3.013,3.013,0,0,0,11,7.99Z" fill="#ff7643"/>
</svg>
