<svg xmlns="http://www.w3.org/2000/svg" width="22" height="22" viewBox="0 0 22 22">
  <path id="User_Icon_Copy" data-name="User Icon Copy" d="M19.212,22H2.787A2.814,2.814,0,0,1,.576,20.946a2.536,2.536,0,0,1-.5-2.224A10.936,10.936,0,0,1,2.93,13.686a11.291,11.291,0,0,1,4.967-2.9A5.766,5.766,0,0,1,5.048,5.82,5.894,5.894,0,0,1,11,0a5.893,5.893,0,0,1,5.951,5.82A5.765,5.765,0,0,1,14.1,10.785a11.293,11.293,0,0,1,4.967,2.9,10.931,10.931,0,0,1,2.853,5.036,2.536,2.536,0,0,1-.5,2.224A2.811,2.811,0,0,1,19.212,22ZM11,11.64a9.88,9.88,0,0,0-9.655,7.388,1.277,1.277,0,0,0,.259,1.13,1.525,1.525,0,0,0,1.183.565H19.212a1.528,1.528,0,0,0,1.184-.565,1.279,1.279,0,0,0,.259-1.13A9.881,9.881,0,0,0,11,11.64ZM11,1.278A4.6,4.6,0,0,0,6.356,5.82a4.646,4.646,0,0,0,9.289,0A4.6,4.6,0,0,0,11,1.278Z" transform="translate(0)" fill="#ff7643"/>
</svg>
